<?xml version="1.0" encoding="UTF-8"?>
<svg width="63px" height="30px" viewBox="0 0 63 30" version="1.1" xmlns="http://www.w3.org/2000/svg" xmlns:xlink="http://www.w3.org/1999/xlink">
    <!-- Generator: Sketch 61.2 (89653) - https://sketch.com -->
    <title>Page 1</title>
    <desc>Created with Sketch.</desc>
    <g id="Page-1" stroke="none" stroke-width="1" fill="none" fill-rule="evenodd" opacity="0.800000012">
        <g id="00" transform="translate(-204.000000, -3687.000000)" fill="#6D86A4">
            <g id="Group-17" transform="translate(204.000000, 3683.000000)">
                <g id="Page-1" transform="translate(0.000000, 4.000000)">
                    <path d="M19.8620208,0.156241226 L14.4664325,0.156241226 C6.49034537,0.156241226 0,6.64025211 0,14.6085546 C0,22.5768572 6.49034537,29.0608681 14.4664325,29.0608681 L24.6320336,29.0608681 C27.2125324,29.0608681 29.2456526,27.0297321 29.2456526,24.4517519 L29.2456526,15.6241226 L36.2833765,26.6391291 C37.2217397,28.0453001 38.8638753,28.9827475 40.7406017,28.9827475 C43.6338882,28.9827475 46.0579931,26.6391291 46.0579931,23.6705458 L46.0579931,15.546002 L53.0957169,26.5610085 C54.0340801,27.9671795 55.6762157,28.9046268 57.5529421,28.9046268 C60.4462286,28.9046268 62.8703335,26.5610085 62.8703335,23.5924252 L62.8703335,0 L59.2732746,0 L59.2732746,23.5924252 C59.2732746,24.5298725 58.4913053,25.3110786 57.5529421,25.3110786 C57.0055636,25.3110786 56.458185,24.9985962 56.1453973,24.5298725 L43.6338882,4.92159863 C43.5556912,4.7653574 43.3211004,4.60911617 43.0865096,4.60911617 C42.695525,4.60911617 42.4609342,4.92159863 42.4609342,5.23408108 L42.4609342,23.5924252 C42.4609342,24.5298725 41.6789648,25.3110786 40.7406017,25.3110786 C40.1932231,25.3110786 39.6458446,24.9985962 39.3330569,24.5298725 L26.8215477,4.92159863 C26.7433508,4.7653574 26.50876,4.60911617 26.2741692,4.60911617 C25.8831845,4.60911617 25.6485938,4.92159863 25.6485938,5.23408108 L25.6485938,24.2173901 C25.6485938,24.7642344 25.1794122,25.232958 24.6320336,25.232958 L14.4664325,25.232958 C8.44526867,25.232958 3.59705888,20.38948 3.59705888,14.3741928 C3.59705888,8.3589056 8.44526867,3.51542759 14.4664325,3.51542759 L19.8620208,3.51542759 L19.8620208,0.156241226 L19.8620208,0.156241226 Z" id="Fill-1"></path>
                    <path d="M20.4875962,20.7800831 C20.800384,20.7800831 21.0349748,20.5457212 21.0349748,20.2332388 L21.0349748,5.3903223 C21.0349748,2.49985962 23.3808827,0.0781206131 26.3523661,0.0781206131 C28.2290925,0.0781206131 29.8712281,1.01556797 30.8095913,2.49985962 L37.7691182,13.4367455 L37.7691182,5.3903223 C37.7691182,2.49985962 40.1150262,0.0781206131 43.0865096,0.0781206131 C44.963236,0.0781206131 46.6053716,1.01556797 47.5437348,2.49985962 L54.5032617,13.4367455 L54.5032617,0.156241226 L58.1003206,0.156241226 L58.1003206,23.7486664 C58.1003206,24.1392694 57.7875329,24.3736313 57.4747451,24.3736313 C57.2401544,24.3736313 57.0837605,24.2955107 56.9273666,24.1392694 L44.4158575,4.45287495 C44.1030697,3.98415127 43.6338882,3.67166882 43.0083127,3.67166882 C42.0699495,3.67166882 41.2879802,4.45287495 41.2879802,5.3903223 L41.2879802,23.7486664 C41.2879802,24.1392694 40.9751925,24.3736313 40.6624047,24.3736313 C40.4278139,24.3736313 40.2714201,24.2955107 40.1150262,24.1392694 L27.6035171,4.45287495 C27.2907293,3.98415127 26.8215477,3.67166882 26.1959723,3.67166882 C25.2576091,3.67166882 24.4756398,4.45287495 24.4756398,5.3903223 L24.4756398,23.826787 C24.4756398,24.1392694 24.241049,24.3736313 23.9282612,24.3736313 L14.3100386,24.3736313 C8.91445027,24.3736313 4.53542207,19.998877 4.53542207,14.530434 C4.53542207,9.06199112 8.91445027,4.68723679 14.3100386,4.68723679 L19.7056269,4.68723679 L19.7056269,8.3589056 L14.3100386,8.3589056 C10.8693736,8.3589056 8.13248095,11.0931271 8.13248095,14.530434 C8.13248095,17.967741 10.8693736,20.7800831 14.3100386,20.7800831 L20.4875962,20.7800831 L20.4875962,20.7800831 Z" id="Fill-3"></path>
                </g>
            </g>
        </g>
    </g>
</svg>