<?xml version="1.0" encoding="UTF-8"?>
<svg width="101px" height="41px" viewBox="0 0 101 41" version="1.1" xmlns="http://www.w3.org/2000/svg" xmlns:xlink="http://www.w3.org/1999/xlink">
    <!-- Generator: Sketch 61.2 (89653) - https://sketch.com -->
    <title>Combined Shape</title>
    <desc>Created with Sketch.</desc>
    <g id="Page-1" stroke="none" stroke-width="1" fill="none" fill-rule="evenodd" opacity="0.800000012">
        <g id="00" transform="translate(-321.000000, -3682.000000)" fill="#6D86A4" stroke="#6D86A4" stroke-width="0.584597023">
            <g id="Group-17" transform="translate(204.000000, 3683.000000)">
                <path d="M173.119218,29.3022144 C173.544307,29.3022144 174.038385,29.3844784 174.394484,29.4822109 C174.572882,29.5370536 174.765217,29.564475 174.874625,29.564475 C174.998667,29.8963437 175.12271,30.6718757 175.12271,31.2526459 C175.067657,31.3363162 174.848144,31.3777998 174.779154,31.2948326 C174.600757,30.6303922 174.23072,29.7304093 172.913643,29.7304093 C171.569387,29.7304093 171.280884,30.6303922 171.280884,31.2667082 C171.280884,32.0689585 171.939423,32.6511349 172.447439,32.9689413 L173.545004,33.6608031 C174.409118,34.2000897 175.259296,35.0037463 175.259296,36.318565 C175.259296,37.8422078 174.120616,38.8800005 172.338031,38.8800005 C171.185414,38.8800005 170.458582,38.5200074 170.197257,38.3674322 C170.032796,38.0629848 169.855095,37.0807379 169.827221,36.4303597 C169.895513,36.3340334 170.101786,36.305909 170.156142,36.3895792 C170.361717,37.0948002 170.924089,38.4511024 172.515732,38.4511024 C173.667652,38.4511024 174.230024,37.6903357 174.230024,36.8592578 C174.230024,36.24966 174.106678,35.5718605 173.105281,34.9207791 L171.80214,34.062983 C171.115727,33.6059604 170.319905,32.8170692 170.319905,31.6829502 C170.319905,30.3674284 171.334543,29.3022144 173.119218,29.3022144 Z M163.053677,29.3022144 C166.223027,29.3022144 167.813276,31.6133422 167.813276,34.0496239 C167.813276,36.8444924 165.701074,38.8792974 163.053677,38.8792974 C160.008371,38.8800005 158.170037,36.6799643 158.170037,34.1881368 C158.170037,31.4206896 160.227884,29.3022144 163.053677,29.3022144 Z M152.472455,29.4836172 C153.611135,29.4836172 154.462009,29.6354893 155.106611,30.0362629 C155.737275,30.4377396 156.204176,31.1577259 156.204176,32.1132545 C156.204176,33.3858865 155.422292,34.0229056 154.832046,34.3139938 C154.228559,34.6043789 153.50103,34.7288297 152.939356,34.7288297 C152.842492,34.686643 152.842492,34.479225 152.925419,34.4518037 C154.406957,34.1747777 154.942151,33.3303407 154.942151,32.1266136 C154.942151,30.7843736 154.159569,29.9125152 152.733084,29.9125152 C152.055358,29.9125152 151.998035,29.9609018 151.993404,30.3274965 L151.993011,36.5829349 L151.991617,36.5829349 C151.991617,38.0355635 152.019492,38.2162632 152.896847,38.3125895 L153.268277,38.3547762 C153.34981,38.4236811 153.32333,38.6585204 153.240402,38.7000039 C152.457821,38.6725826 152.006252,38.6585204 151.457121,38.6585204 C150.881509,38.6585204 150.387431,38.6725826 149.783944,38.7000039 C149.701017,38.6585204 149.674536,38.4370402 149.75607,38.3547762 L150.044572,38.3125895 C150.805126,38.207673 150.863697,38.0500059 150.867353,36.7652202 L150.867572,31.4755323 C150.867572,30.2999297 150.839697,30.0643873 150.22297,29.9947793 L149.728892,29.9399366 C149.632027,29.8562663 149.645965,29.6488484 149.75607,29.5940057 C150.483598,29.4962732 151.333775,29.4836172 152.472455,29.4836172 Z M177.91366,29.0954995 C177.98937,29.5068198 178.385343,29.5240748 178.946469,29.5244412 L184.634938,29.5243976 C185.376404,29.5243976 185.499053,29.4962732 185.705325,29.1369831 C185.772921,29.1088587 185.924838,29.1229209 185.952016,29.1777636 C185.801493,29.7458778 185.705325,30.8659345 185.746441,31.2821766 C185.691388,31.3925651 185.457938,31.3925651 185.389645,31.309598 C185.349227,30.9643702 185.253059,30.4518018 185.047483,30.2999297 C184.731106,30.0643873 184.210547,29.9539988 183.45584,29.9539988 L182.481621,29.9539988 C182.101453,29.9539988 182.084085,29.9659808 182.083663,30.3272848 L182.08371,36.5829349 C182.08371,38.0355635 182.111585,38.2436845 182.906709,38.3125895 L183.345735,38.3547762 C183.427269,38.4096189 183.400788,38.6585204 183.318557,38.7000039 C182.536673,38.6725826 182.069773,38.6585204 181.520642,38.6585204 C180.972905,38.6585204 180.492067,38.6725826 179.614015,38.7000039 C179.531784,38.6585204 179.504607,38.4236811 179.614015,38.3547762 L180.107396,38.3125895 C180.889977,38.2443876 180.95827,38.0355635 180.95827,36.5829349 L180.95827,30.396256 C180.95827,30.0003501 180.95827,29.9579138 180.634341,29.9537277 L179.792413,29.9532957 C179.202863,29.9532957 178.448157,29.980717 178.105299,30.2992266 C177.776378,30.6029708 177.639095,30.9081212 177.487875,31.253349 C177.378467,31.3370193 177.186132,31.2674113 177.131079,31.1570227 C177.351289,30.534769 177.556168,29.6488484 177.653032,29.0954995 C177.694147,29.0673751 177.872545,29.054016 177.91366,29.0954995 Z M162.81953,29.7311124 C161.393741,29.7311124 159.54147,30.7147656 159.54147,33.7451765 C159.54147,35.7940437 160.52893,38.4503993 163.231378,38.4503993 C164.877377,38.4511024 166.441843,37.2058918 166.441843,34.479225 C166.441843,32.1948155 165.439749,29.7311124 162.81953,29.7311124 Z M173.553366,14.9481911 C173.662774,15.016393 173.662774,15.2111549 173.581241,15.2934189 L173.388906,15.3215434 C172.94988,15.3911514 172.675314,15.5008368 172.620262,15.6126316 C172.402375,16.0765915 172.412131,17.6032186 172.4144,18.3220554 L172.414686,21.7718892 L172.415383,21.7718892 L172.415788,22.1837675 C172.417271,22.8338316 172.424193,23.9107044 172.456498,24.1941086 C172.42932,24.2763727 172.346393,24.3459807 172.19587,24.3459807 C172.03141,24.1104383 171.632802,23.6259944 170.439766,22.2563331 L167.257874,18.6029652 C166.887837,18.1740671 165.954733,17.0385419 165.66623,16.7340946 L165.639052,16.7340946 C165.591865,16.876324 165.574884,17.1306495 165.570995,17.4620918 L165.570063,20.6511293 C165.570063,21.3015075 165.584,23.1007701 165.816753,23.5156059 C165.899681,23.6688843 166.173549,23.7511483 166.517104,23.7785697 L166.942193,23.8207564 C167.023726,23.931848 167.011183,24.0977823 166.914318,24.1666873 C166.297591,24.1392659 165.816753,24.1252037 165.309435,24.1252037 C164.732429,24.1252037 164.362393,24.1392659 163.882252,24.1666873 C163.786781,24.0984854 163.772147,23.9037235 163.855074,23.8207564 L164.22511,23.7785697 C164.540791,23.7370861 164.759607,23.654822 164.828597,23.5015437 C164.97917,23.1109652 165.002831,21.9846486 165.006058,21.1975838 L165.006298,16.6504243 C165.006298,16.2637129 164.99236,15.9726247 164.705251,15.6541152 C164.512916,15.4600564 164.183995,15.363027 163.855074,15.3222465 L163.621624,15.294122 C163.538697,15.211858 163.538697,15.0037369 163.648802,14.9488942 C164.225807,14.9903778 164.951942,14.9903778 165.19933,14.9903778 C165.418843,14.9903778 165.652293,14.9763156 165.829994,14.9488942 C166.104559,15.6541152 167.722684,17.4815022 168.175647,17.9933675 L169.505965,19.5022449 C170.453007,20.567459 171.125483,21.342288 171.770085,22.0067284 L171.797262,22.0067284 C171.843853,21.9476671 171.850509,21.775993 171.851459,21.5448395 L171.851618,18.463046 C171.851618,17.8126678 171.837681,16.0134052 171.577053,15.5985694 C171.495519,15.4741186 171.276006,15.3911514 170.726875,15.3215434 L170.493425,15.2934189 C170.397954,15.2111549 170.411892,14.9889716 170.5213,14.9481911 C171.151964,14.9756125 171.618865,14.9896747 172.140121,14.9896747 C172.730367,14.9896747 173.087162,14.9756125 173.553366,14.9481911 Z M139.598542,14.9481911 C139.708647,15.0170961 139.69471,15.1977957 139.62572,15.2800598 L139.296799,15.3081843 C138.954638,15.3356056 138.69401,15.4600564 138.611082,15.6407561 C138.444996,16.0362329 138.422851,17.2840872 138.419898,18.1146603 L138.419444,20.0281724 C138.419444,21.2326026 138.227109,22.5052346 137.458465,23.3356094 C136.868916,23.9859876 135.854278,24.3459807 134.838944,24.3459807 C133.891902,24.3459807 132.946254,24.1659842 132.273778,23.5845109 C131.546249,22.9756162 131.204088,21.9645417 131.204088,20.3178544 L131.204088,17.051901 C131.204088,15.6126316 131.176213,15.3777923 130.381088,15.3081843 L130.03823,15.2800598 C129.955303,15.224514 129.983177,14.9896747 130.066104,14.9481911 C130.751821,14.9763156 131.218025,14.9903778 131.766459,14.9903778 C132.329527,14.9903778 132.78249,14.9763156 133.453573,14.9481911 C133.5365,14.9903778 133.562981,15.2252171 133.481448,15.2800598 L133.152527,15.3081843 C132.391306,15.3747659 132.333343,15.5925231 132.329742,16.8709152 L132.329527,20.0408284 C132.329527,22.2696922 133.015244,23.736383 135.114206,23.736383 C137.103063,23.736383 137.857073,22.1586005 137.857073,20.0548907 L137.857073,18.4637491 L137.856376,18.4637491 C137.856376,17.605953 137.828501,16.0141083 137.595748,15.5985694 C137.49958,15.432635 137.252193,15.3356056 136.910031,15.3081843 L136.567173,15.2800598 C136.484246,15.1830304 136.51212,15.0030338 136.594351,14.9481911 C137.116304,14.9763156 137.622926,14.9903778 138.158119,14.9903778 C138.735125,14.9903778 139.105161,14.9763156 139.598542,14.9481911 Z M200.97855,14.7681946 C204.147202,14.7681946 205.737452,17.0793224 205.737452,19.5163072 C205.737452,22.3111758 203.625946,24.3459807 200.97855,24.3459807 C197.932546,24.3452776 196.094909,22.1452414 196.094909,19.654117 C196.094909,16.8866698 198.152059,14.7681946 200.97855,14.7681946 Z M217.274078,14.9481911 C217.383486,15.016393 217.383486,15.2111549 217.301953,15.2934189 L217.108921,15.3215434 C216.669895,15.3911514 216.395329,15.5008368 216.340974,15.6126316 C216.123087,16.0765915 216.132843,17.6032186 216.135112,18.3220554 L216.135398,21.7718892 L216.136095,21.7718892 L216.136493,22.1837675 C216.137951,22.8338316 216.144756,23.9107044 216.176513,24.1941086 C216.149335,24.2763727 216.066408,24.3459807 215.915885,24.3459807 C215.751425,24.1104383 215.353514,23.6259944 214.160478,22.2563331 L210.978585,18.6029652 C210.607852,18.1740671 209.675445,17.0385419 209.386942,16.7340946 L209.359764,16.7340946 C209.304712,16.9000289 209.290775,17.2185385 209.290775,17.6340774 L209.290775,20.6511293 C209.290775,21.3015075 209.304712,23.1007701 209.537465,23.5156059 C209.620393,23.6688843 209.894958,23.7511483 210.237816,23.7785697 L210.662905,23.8207564 C210.745135,23.931848 210.730501,24.0977823 210.63503,24.1666873 C210.018303,24.1392659 209.537465,24.1252037 209.030843,24.1252037 C208.453838,24.1252037 208.083802,24.1392659 207.603661,24.1666873 C207.50819,24.0984854 207.493556,23.9037235 207.576483,23.8207564 L207.946519,23.7785697 C208.2622,23.7370861 208.481016,23.654822 208.550702,23.5015437 C208.701275,23.1109652 208.724937,21.9846486 208.728163,21.1975838 L208.728403,16.6504243 C208.728403,16.2637129 208.715163,15.9726247 208.42666,15.6541152 C208.234325,15.4600564 207.905404,15.363027 207.576483,15.3222465 L207.343033,15.294122 C207.260802,15.211858 207.260802,15.0037369 207.37021,14.9488942 C207.947216,14.9903778 208.673351,14.9903778 208.920738,14.9903778 C209.140251,14.9903778 209.373702,14.9763156 209.551403,14.9488942 C209.825968,15.6541152 211.444092,17.4815022 211.897056,17.9933675 L213.228071,19.5022449 C214.173719,20.567459 214.846892,21.342288 215.490797,22.0067284 L215.517974,22.0067284 C215.573027,21.9378235 215.573027,21.7156402 215.573027,21.424552 L215.573027,18.463046 C215.573027,17.8126678 215.559786,16.0134052 215.298461,15.5985694 C215.216231,15.4741186 214.996718,15.3911514 214.448284,15.3215434 L214.214834,15.2934189 C214.119363,15.2111549 214.1333,14.9889716 214.242708,14.9481911 C214.873373,14.9756125 215.339576,14.9896747 215.86153,14.9896747 C216.451079,14.9896747 216.807177,14.9756125 217.274078,14.9481911 Z M180.867678,14.7681946 C181.650259,14.7681946 182.376394,14.9200667 182.609844,14.9756125 C182.869775,15.0311583 183.294864,15.1274846 183.460021,15.1000632 C183.460021,15.5570858 183.542948,16.277072 183.666294,17.1067437 C183.625179,17.2171323 183.377791,17.2311945 183.295561,17.1489304 C182.912284,15.6541152 181.882315,15.1830304 180.483704,15.1830304 C177.822371,15.1830304 176.655816,17.0940877 176.655816,19.1696732 C176.655816,21.8267319 178.013312,23.9163795 180.77151,23.9163795 C181.621687,23.9163795 182.129703,23.736383 182.280226,23.5008406 C182.347822,23.4038112 182.417509,23.1549097 182.417509,22.7126525 L182.417509,22.1586005 C182.417509,20.995654 182.375697,20.9133899 181.52552,20.8156574 L180.921336,20.7474556 C180.811928,20.6919098 180.825866,20.4423051 180.921336,20.4015247 C181.319944,20.4296491 182.073954,20.4423051 182.883016,20.4423051 C183.418209,20.4423051 183.884413,20.428946 184.336679,20.4015247 C184.433544,20.4563674 184.446784,20.6644884 184.350617,20.7474556 L184.131104,20.7748769 C183.592565,20.8398444 183.545736,21.1816567 183.541886,21.8008853 L183.541555,22.7126525 L183.542948,22.7126525 C183.542948,23.2660013 183.625876,23.5985731 183.871869,23.6956025 C183.912288,23.736383 183.912288,23.8200532 183.857932,23.8615368 C183.693472,23.8615368 183.447478,23.9163795 183.186153,23.9852845 C182.460018,24.1800464 181.471861,24.3459807 180.730395,24.3459807 C179.09903,24.3459807 177.602858,23.8896613 176.546408,22.8096819 C175.724106,21.9793071 175.28508,20.8859686 175.28508,19.6674762 C175.28508,18.4911705 175.669053,17.3015056 176.51923,16.3874606 C177.438397,15.4185728 178.79659,14.7681946 180.867678,14.7681946 Z M127.844494,14.9488942 C127.927421,14.9896747 127.954599,15.2399824 127.872369,15.2948251 L127.583866,15.3222465 C126.788741,15.4059168 126.760866,15.6133347 126.760866,17.0659633 L126.760866,22.048212 C126.760866,23.5015437 126.788741,23.6815403 127.583866,23.7785697 L127.912787,23.8193501 C127.995714,23.874896 127.967839,24.1237975 127.885609,24.1659842 C127.22707,24.1378597 126.760169,24.1237975 126.224976,24.1237975 C125.663301,24.1237975 125.169223,24.1378597 124.565737,24.1659842 C124.48281,24.1237975 124.455632,23.9030204 124.537862,23.8193501 L124.799187,23.7785697 C125.599069,23.6454064 125.633846,23.5135298 125.635358,22.2304248 L125.635427,20.0970773 C125.635427,19.709241 125.611145,19.6594982 125.073057,19.6545895 L121.026351,19.654117 C120.367812,19.654117 120.340635,19.6815384 120.340635,20.0970773 L120.340635,22.048212 C120.340635,23.5015437 120.408231,23.6948994 121.176874,23.7785697 L121.574785,23.8193501 C121.656319,23.874896 121.629838,24.1237975 121.546911,24.1659842 C120.806838,24.1378597 120.340635,24.1237975 119.804744,24.1237975 C119.215195,24.1237975 118.748991,24.1519219 118.214495,24.1659842 C118.131568,24.1237975 118.10439,23.9030204 118.18662,23.8193501 L118.42007,23.7785697 C119.188714,23.6393536 119.215195,23.5015437 119.215195,22.048212 L119.215195,17.0659633 C119.215195,15.6133347 119.119724,15.3777923 118.406133,15.3222465 L118.050034,15.2948251 C117.967107,15.2392793 117.994982,14.9896747 118.077212,14.9488942 C118.749688,14.9629565 119.215892,14.9896747 119.805441,14.9896747 C120.341331,14.9896747 120.807535,14.9756125 121.397084,14.9488942 C121.480011,14.9896747 121.507189,15.2399824 121.424959,15.2948251 L121.163634,15.3222465 C120.40308,15.4022789 120.345146,15.5955323 120.341546,16.8834595 L120.341331,18.6578079 C120.341331,19.0581128 120.365006,19.0970495 120.90358,19.100462 L124.950407,19.1007682 C125.608249,19.1007682 125.636124,19.086706 125.636124,18.6578079 L125.636124,17.0659633 C125.636124,15.6133347 125.608249,15.4059168 124.799884,15.3222465 L124.538559,15.2948251 C124.457025,15.2392793 124.483506,14.9896747 124.566433,14.9488942 C125.197098,14.9763156 125.663998,14.9896747 126.225673,14.9896747 C126.760866,14.9896747 127.227767,14.9756125 127.844494,14.9488942 Z M161.548446,14.9481911 C161.631373,14.9896747 161.657854,15.2392793 161.575623,15.294122 L161.233462,15.3215434 C160.459577,15.3874525 160.400426,15.6064671 160.396745,16.9089677 L160.396525,22.0207907 C160.396525,23.4874815 160.4244,23.6815403 161.233462,23.7785697 L161.575623,23.8193501 C161.658551,23.874896 161.631373,24.1245006 161.548446,24.165281 C160.862729,24.1371566 160.395828,24.1245006 159.847394,24.1245006 C159.271783,24.1245006 158.805579,24.1378597 158.119165,24.165281 C158.037632,24.1245006 158.009757,23.9023173 158.091987,23.8193501 L158.434846,23.7785697 C159.208731,23.6850864 159.267882,23.5041142 159.271563,22.2049738 L159.271783,17.0933846 C159.271783,15.6266938 159.243908,15.3911514 158.434846,15.3215434 L158.091987,15.294122 C158.00906,15.2392793 158.037632,14.9896747 158.119165,14.9481911 C158.805579,14.9763156 159.271783,14.9896747 159.847394,14.9896747 C160.395828,14.9896747 160.862729,14.9763156 161.548446,14.9481911 Z M155.910795,14.9481911 C155.910795,15.5845071 155.924036,16.2489476 155.95191,16.7755782 C155.910795,16.8578422 155.71846,16.8993258 155.622292,16.8163586 C155.512187,16.1934018 155.347727,15.6815365 154.66201,15.50154 C154.35957,15.4178697 153.906607,15.4178697 153.330995,15.4178697 L152.494058,15.4178697 C152.082907,15.4178697 152.082907,15.4459941 152.082907,15.9719216 L152.082907,18.8926472 C152.082907,19.2348868 152.117455,19.2634067 152.440441,19.2657834 L153.468975,19.2659994 C154.030649,19.2659994 154.469675,19.2385781 154.634832,19.1837354 C154.785356,19.1281896 154.89546,19.0585815 154.978388,18.6985884 L155.101733,18.1452396 C155.169329,18.0622724 155.403476,18.0622724 155.457832,18.1452396 C155.457832,18.4771082 155.402779,19.0311602 155.402779,19.5430254 C155.402779,20.0415315 155.457832,20.5667559 155.457832,20.8859686 C155.402779,20.9682326 155.197204,20.9682326 155.101733,20.8859686 L154.963753,20.3452757 C154.894764,20.0963742 154.785356,19.9023154 154.524727,19.8200514 C154.333089,19.7645056 153.990231,19.7504433 153.468975,19.7504433 L152.53587,19.7504433 C152.124022,19.7504433 152.082907,19.7645056 152.082907,20.1244987 L152.082907,22.0475089 C152.082907,23.5015437 152.110782,23.7082585 152.919844,23.7778666 L153.386048,23.8193501 C153.468975,23.8741928 153.4411,24.1230943 153.35887,24.165281 C152.548414,24.1371566 152.082907,24.1230943 151.533776,24.1230943 C150.93029,24.1230943 150.464086,24.1371566 149.819484,24.165281 C149.736557,24.1230943 149.709379,23.9023173 149.79161,23.8193501 L150.135165,23.7778666 C150.93029,23.680134 150.958164,23.5008406 150.958164,22.0475089 L150.958164,17.0652601 C150.958164,15.6126316 150.93029,15.4178697 150.135165,15.3215434 L149.915652,15.294122 C149.833422,15.2385762 149.8606,14.9889716 149.94283,14.9481911 C150.519835,14.9756125 150.985342,14.9889716 151.534473,14.9889716 L154.779078,14.9880205 C155.341284,14.9856426 155.783368,14.97732 155.910795,14.9481911 Z M147.66756,14.9481911 C147.66756,15.5845071 147.680801,16.2489476 147.708676,16.7755782 C147.66756,16.8578422 147.475225,16.8993258 147.379755,16.8163586 C147.26965,16.1934018 147.105189,15.6815365 146.419472,15.50154 C146.117032,15.4178697 145.664766,15.4178697 145.088457,15.4178697 L144.252217,15.4178697 C143.869787,15.4178697 143.84247,15.4421199 143.840519,15.8666711 L143.840369,18.8926472 L143.841066,18.8926472 C143.841066,19.2348868 143.875614,19.2634067 144.1986,19.2657834 L145.227134,19.2659994 C145.788808,19.2659994 146.227834,19.2385781 146.392295,19.1837354 C146.542818,19.1281896 146.652923,19.0585815 146.735153,18.6985884 L146.859195,18.1452396 C146.926791,18.0622724 147.160938,18.0622724 147.215294,18.1452396 C147.215294,18.4771082 147.160242,19.0311602 147.160242,19.5430254 C147.160242,20.0415315 147.215294,20.5667559 147.215294,20.8859686 C147.160242,20.9682326 146.954666,20.9682326 146.859195,20.8859686 L146.721216,20.3452757 C146.652226,20.0963742 146.542818,19.9023154 146.28219,19.8200514 C146.090551,19.7645056 145.747693,19.7504433 145.226437,19.7504433 L144.293332,19.7504433 C143.881484,19.7504433 143.840369,19.7645056 143.840369,20.1244987 L143.840369,22.0475089 C143.840369,23.5015437 143.868244,23.7082585 144.677306,23.7778666 L145.14351,23.8193501 C145.226437,23.8741928 145.198562,24.1230943 145.116332,24.165281 C144.305876,24.1371566 143.840369,24.1230943 143.291238,24.1230943 C142.687752,24.1230943 142.221548,24.1371566 141.576947,24.165281 C141.494019,24.1230943 141.466842,23.9023173 141.549072,23.8193501 L141.89193,23.7778666 C142.652484,23.6843833 142.711055,23.5162771 142.714711,22.2299468 L142.71493,17.0652601 C142.71493,15.6126316 142.687055,15.4178697 141.89193,15.3215434 L141.672417,15.294122 C141.590884,15.2385762 141.617365,14.9889716 141.699595,14.9481911 C142.276601,14.9756125 142.742107,14.9889716 143.291238,14.9889716 L146.535162,14.9880205 C147.09741,14.9856426 147.539636,14.97732 147.66756,14.9481911 Z M186.627977,14.5614798 C186.704333,14.9728 187.100353,14.990055 187.66204,14.9904214 L193.349255,14.9903778 C194.090024,14.9903778 194.213369,14.9622534 194.418945,14.6029633 C194.487238,14.5748389 194.638458,14.5889011 194.666333,14.6444469 C194.514416,15.2125611 194.418945,16.3326179 194.459363,16.7481568 C194.405705,16.8592484 194.172254,16.8592484 194.103265,16.7755782 C194.062149,16.4296473 193.966679,15.917782 193.760406,15.7652068 C193.444726,15.5296644 192.924166,15.4192759 192.16946,15.4192759 L191.195937,15.4192759 C190.816413,15.4192759 190.797907,15.4312579 190.797305,15.7920089 L190.797329,22.048212 L190.796633,22.048212 C190.796633,23.5008406 190.824507,23.7089616 191.620329,23.7778666 L192.059355,23.8200532 C192.140888,23.8755991 192.11371,24.1245006 192.03148,24.1659842 C191.250293,24.1385628 190.784089,24.1245006 190.234261,24.1245006 C189.686524,24.1245006 189.206383,24.1385628 188.327634,24.1659842 C188.245404,24.1245006 188.218226,23.8889582 188.327634,23.8200532 L188.82241,23.7778666 C189.569632,23.71263 189.665241,23.5187334 189.672143,22.2307223 L189.672587,15.8615331 C189.672587,15.432635 189.672587,15.4185728 189.261436,15.4185728 L188.506729,15.4185728 C187.916483,15.4185728 187.162473,15.4459941 186.818918,15.7645037 C186.489997,16.068951 186.353411,16.3741014 186.202191,16.7193292 C186.092086,16.8029995 185.900448,16.7333915 185.845396,16.623003 C186.066302,16.0007492 186.271181,15.1148286 186.367349,14.5614798 C186.408464,14.5333553 186.586862,14.5199962 186.627977,14.5614798 Z M200.7451,15.1970926 C199.318614,15.1970926 197.467039,16.1800426 197.467039,19.2104536 C197.467039,21.2593208 198.454499,23.9163795 201.156948,23.9163795 C202.801553,23.9163795 204.366715,22.6711689 204.366715,19.9445021 C204.366715,17.6607957 203.364621,15.1970926 200.7451,15.1970926 Z M173.031413,0.414171338 C173.11434,0.455654922 173.141518,0.705259538 173.059288,0.760102243 L172.770785,0.787523595 C172.009564,0.867556036 171.950964,1.06080938 171.947308,2.34873658 L171.947089,7.51348912 C171.947089,8.96682079 171.974963,9.14611424 172.770785,9.24384676 L173.100403,9.28533034 C173.18333,9.34087616 173.154758,9.58977766 173.073225,9.63126125 C172.414686,9.60313678 171.947786,9.58907455 171.413289,9.58907455 C170.851614,9.58907455 170.357536,9.60313678 169.75405,9.63126125 C169.671122,9.58907455 169.644642,9.36829751 169.726175,9.28533034 L169.986803,9.24384676 C170.750963,9.11737838 170.817411,8.99091 170.823189,7.86365788 L170.82374,5.56235444 C170.82374,5.17517432 170.799458,5.12486278 170.26137,5.11987538 L166.213967,5.11939414 C165.555428,5.11939414 165.527554,5.1475186 165.527554,5.56235444 L165.527554,7.51348912 C165.527554,8.96682079 165.596544,9.16087959 166.364491,9.24384676 L166.762401,9.28533034 C166.843935,9.34087616 166.817454,9.58977766 166.734527,9.63126125 C165.994454,9.60313678 165.526857,9.58907455 164.99236,9.58907455 C164.402811,9.58907455 163.936607,9.61719901 163.402111,9.63126125 C163.319184,9.58907455 163.292006,9.36829751 163.374236,9.28533034 L163.607686,9.24384676 C164.342911,9.11135608 164.399106,8.97886539 164.402602,7.69570575 L164.402811,2.53124035 C164.402811,1.0786118 164.30734,0.843069411 163.593749,0.787523595 L163.23765,0.760102243 C163.154723,0.705259538 163.182598,0.455654922 163.264828,0.414171338 C163.937304,0.428233569 164.403508,0.455654922 164.993057,0.455654922 C165.527554,0.455654922 165.995151,0.44159269 166.5847,0.414171338 C166.667628,0.455654922 166.694805,0.705259538 166.612575,0.760102243 L166.35125,0.787523595 C165.590696,0.867556036 165.532125,1.06080938 165.52847,2.34873658 L165.528251,4.123085 C165.528251,4.55198308 165.556125,4.56604531 166.214664,4.56604531 L170.138023,4.56604531 C170.752009,4.56604531 170.817223,4.55379554 170.82319,4.20345222 L170.82374,2.53124035 C170.82374,1.0786118 170.795865,0.871193875 169.986803,0.787523595 L169.726175,0.760102243 C169.644642,0.705259538 169.671122,0.455654922 169.75405,0.414171338 C170.384714,0.44159269 170.851614,0.455654922 171.413289,0.455654922 C171.947786,0.455654922 172.414686,0.44159269 173.031413,0.414171338 Z M153.287092,0.0260537367 C153.356978,0.405733998 153.699751,0.4496426 154.193852,0.454439338 L160.008371,0.45495181 C160.748443,0.45495181 160.872485,0.426827346 161.078061,0.0675373208 C161.147051,0.039412857 161.297574,0.0534750889 161.325448,0.109020905 C161.174228,0.676431963 161.078061,1.79719185 161.119176,2.2127308 C161.06482,2.32311932 160.83137,2.32311932 160.763077,2.24015215 C160.721962,1.89492436 160.626491,1.382356 160.420219,1.2304839 C160.104538,0.994941516 159.583979,0.884552995 158.829969,0.884552995 L157.85575,0.884552995 C157.475582,0.884552995 157.458214,0.896535015 157.457792,1.25728599 L157.457839,7.51348912 L157.456445,7.51348912 C157.456445,8.96611768 157.483623,9.17423871 158.279445,9.24314364 L158.718471,9.28533034 C158.800004,9.34087616 158.773523,9.58977766 158.690596,9.63055813 C157.909408,9.60313678 157.442508,9.58977766 156.893377,9.58977766 C156.344246,9.58977766 155.864802,9.60383989 154.98675,9.63055813 C154.90452,9.58977766 154.876645,9.35353217 154.98675,9.28533034 L155.480828,9.24314364 C156.229384,9.17723458 156.324414,8.98395199 156.331262,7.69599555 L156.331703,1.32681019 C156.331703,0.897912115 156.331703,0.883849883 155.919854,0.883849883 L155.165148,0.883849883 C154.575599,0.883849883 153.820892,0.911271236 153.478034,1.22978079 C153.148416,1.53422811 153.01183,1.83797232 152.861307,2.18460634 C152.751899,2.26827662 152.558867,2.19866857 152.504511,2.08757694 C152.724024,1.46532317 152.9296,0.579402563 153.026464,0.0260537367 C153.067579,-0.00207072713 153.24528,-0.0147267359 153.287092,0.0260537367 Z M181.556879,0.414171338 C181.638412,0.64901061 181.721339,1.64531974 181.775695,2.25421438 C181.721339,2.33788466 181.502523,2.36530602 181.432836,2.28233885 C181.227261,1.63125751 181.103915,1.14681362 180.390324,0.966817052 C180.101821,0.898615227 179.662795,0.884552995 179.060006,0.884552995 L178.072546,0.884552995 C177.690115,0.884552995 177.662799,0.908196916 177.660848,1.33266159 L177.660698,4.20534906 C177.660698,4.56047901 177.695831,4.59007317 178.018378,4.59253935 L178.908786,4.59276355 C179.485094,4.59276355 179.910183,4.5653422 180.07534,4.51049949 C180.239801,4.45495368 180.335968,4.3712834 180.404958,4.0260556 L180.515063,3.45794144 C180.582659,3.37567738 180.81611,3.37567738 180.871162,3.47200367 C180.871162,3.80387234 180.816806,4.34386205 180.816806,4.86908641 C180.816806,5.36759253 180.871162,5.89352 180.871162,6.19796732 C180.816806,6.29499672 180.583356,6.29499672 180.515063,6.21202956 L180.391021,5.67274296 C180.335968,5.42313835 180.240498,5.21572042 179.965932,5.14611238 C179.773597,5.09056656 179.444676,5.07650433 178.909483,5.07650433 L178.114358,5.07650433 C177.703207,5.07650433 177.661395,5.09056656 177.661395,5.4505597 L177.661395,7.40169438 C177.661395,8.13574288 177.703207,8.60612454 177.92272,8.84096381 C178.086483,9.00689815 178.374986,9.15947336 179.582656,9.15947336 C180.638409,9.15947336 181.036319,9.10463066 181.338759,8.95205544 C181.58545,8.81283935 181.955486,8.32909857 182.312979,7.6091123 C182.40845,7.54091047 182.601482,7.58169094 182.655837,7.7061417 C182.55967,8.1912887 182.216115,9.25650277 182.037717,9.62985502 C180.803566,9.60243367 179.583353,9.58837144 178.361745,9.58837144 L177.127595,9.58837144 C176.538046,9.58837144 176.071842,9.60243367 175.262083,9.62985502 C175.179853,9.58837144 175.151281,9.36689129 175.234208,9.28462723 L175.687172,9.24244053 C176.468359,9.17423871 176.537349,8.96541456 176.537349,7.51278601 L176.537349,2.53124035 L176.536652,2.53124035 C176.536652,1.0912678 176.508777,0.883849883 175.699715,0.787523595 L175.479505,0.759399131 C175.397972,0.704556427 175.425847,0.45495181 175.50738,0.414171338 C176.096929,0.44159269 176.563133,0.455654922 177.126201,0.455654922 L180.254322,0.455246738 C180.900068,0.453750063 181.42766,0.446765582 181.556879,0.414171338 Z" id="Combined-Shape"></path>
            </g>
        </g>
    </g>
</svg>