<?xml version="1.0" encoding="UTF-8"?>
<svg width="89px" height="38px" viewBox="0 0 89 38" version="1.1" xmlns="http://www.w3.org/2000/svg" xmlns:xlink="http://www.w3.org/1999/xlink">
    <!-- Generator: Sketch 61.2 (89653) - https://sketch.com -->
    <title>Shape</title>
    <desc>Created with Sketch.</desc>
    <g id="Page-1" stroke="none" stroke-width="1" fill="none" fill-rule="evenodd" opacity="0.800000012">
        <g id="00" transform="translate(-475.000000, -3684.000000)" fill="#6D86A4" stroke="#6D86A4" stroke-width="0.5">
            <g id="Group-17" transform="translate(204.000000, 3683.000000)">
                <path d="M277.848311,9.67588781 C277.440959,9.38454375 276.99465,9.24850805 276.238043,9.20962461 C275.888788,9.19023924 275.694907,9.19023924 275.403861,9.19023924 C275.326286,9.19023924 275.287555,9.22912268 275.287555,9.32616223 L275.287555,13.9287221 C275.287555,15.2105233 275.345764,15.5407508 275.966475,15.7930987 C276.490245,16.0067886 276.936441,16.0261739 277.382637,16.0261739 C278.255775,16.0261739 279.730147,15.5599107 279.730147,13.5402258 C279.730147,12.3361915 279.322795,10.7050029 277.848311,9.67588781 L277.848311,9.67588781 Z M275.287555,8.12224067 C275.287555,8.27766174 275.345764,8.31643247 275.423339,8.33581784 C275.597967,8.37481399 275.8889,8.39408665 276.335208,8.39408665 C276.975397,8.39408665 277.402228,8.31654518 277.731892,8.02520112 C278.236297,7.61731944 278.527343,6.91831911 278.527343,5.96674546 C278.527343,4.66544623 277.770736,2.95649073 276.102259,2.95649073 C275.830691,2.95649073 275.656063,2.95649073 275.46207,2.99537417 C275.326173,3.03425762 275.287442,3.1119118 275.287442,3.32548897 L275.287442,8.12224067 L275.287555,8.12224067 Z M272.959411,7.79201317 C272.959411,4.84013996 272.959411,4.29633528 272.920567,3.67487643 C272.881723,3.01475954 272.726574,2.70391741 272.086385,2.56799442 C271.931235,2.52922368 271.601345,2.5097256 271.329777,2.5097256 C271.116418,2.5097256 271,2.47084216 271,2.33491917 C271,2.19899618 271.135784,2.16022544 271.42683,2.16000003 C272.455006,2.16000003 273.677287,2.21838155 274.065273,2.21838155 C275.015874,2.21838155 275.772594,2.16000003 276.432149,2.16022544 C279.943618,2.16022544 280.564441,4.04387467 280.564441,5.07321521 C280.564441,6.66563308 279.652572,7.61709403 278.585553,8.47174083 C280.176455,9.0153201 282.116387,10.3943862 282.116387,12.6665318 C282.116387,14.7445982 280.50612,16.9000934 276.936441,16.9000934 C276.703717,16.9000934 276.141103,16.86121 275.578376,16.8417119 C274.996396,16.8029412 274.414416,16.7834431 274.12337,16.7834431 C273.909899,16.7834431 273.483069,16.7834431 273.017507,16.8029412 C272.571312,16.8029412 272.067019,16.8417119 271.67892,16.8417119 C271.426718,16.8417119 271.290821,16.7834431 271.290821,16.6475201 C271.290821,16.5504805 271.368508,16.492099 271.601345,16.492099 C271.892279,16.492099 272.125116,16.4533283 272.299744,16.4145575 C272.68773,16.3367907 272.784783,15.9096363 272.862358,15.3463336 C272.959298,14.5307956 272.959298,12.9964211 272.959298,11.2098115 L272.959298,7.79201317 L272.959411,7.79201317 Z M284.734677,9.13208313 C284.734677,6.62686234 284.754155,6.16071185 284.715311,5.63629254 C284.676468,5.05371713 284.521318,4.89840877 283.97807,4.7429877 C283.842286,4.70399155 283.551239,4.68471889 283.318515,4.68471889 C283.124409,4.68471889 283.027581,4.62633737 283.027581,4.50991246 C283.027581,4.39337483 283.143887,4.35449139 283.39609,4.35449139 C284.307959,4.35449139 285.452553,4.39337483 285.956846,4.39337483 C286.383789,4.39337483 287.528382,4.35449139 288.149206,4.35449139 C288.401408,4.35449139 288.517714,4.39337483 288.517714,4.50991246 C288.517714,4.62633737 288.420774,4.68471889 288.246259,4.68471889 C288.052153,4.68471889 287.955213,4.70410426 287.741966,4.7429877 C287.295658,4.82064188 287.159874,5.05371713 287.120918,5.63629254 C287.082187,6.16059914 287.082187,6.62686234 287.082187,9.13208313 L287.082187,11.4431121 C287.082187,13.8511807 287.547748,14.7833689 288.38193,15.4435985 C289.138538,16.0457847 289.953467,16.1038281 290.535559,16.1038281 C291.272576,16.1038281 292.145715,15.8902509 292.824635,15.2299086 C293.775235,14.3366038 293.814079,12.8994943 293.814079,11.2099242 L293.814079,9.13208313 C293.814079,6.62686234 293.794713,6.16071185 293.775235,5.63629254 C293.736392,5.07321521 293.600608,4.89840877 293.057472,4.7429877 C292.921688,4.70399155 292.630641,4.68471889 292.436536,4.68471889 C292.242542,4.68471889 292.145602,4.62633737 292.145602,4.50991246 C292.145602,4.39337483 292.26202,4.35449139 292.494857,4.35449139 C293.367883,4.35449139 294.512477,4.39337483 294.531843,4.39337483 C294.726061,4.39337483 295.870655,4.35449139 296.530097,4.35449139 C296.762934,4.35449139 296.879465,4.39337483 296.879465,4.50991246 C296.879465,4.62633737 296.782412,4.68471889 296.588419,4.68471889 C296.394426,4.68471889 296.297373,4.70410426 296.084014,4.7429877 C295.61834,4.82064188 295.502147,5.05371713 295.46319,5.63629254 C295.443825,6.16059914 295.424347,6.62686234 295.424347,9.13208313 L295.424347,10.8993074 C295.424347,12.7441859 295.230354,14.6863294 293.794713,15.8708656 C292.591798,16.880708 291.292054,17.0554018 290.186191,17.0554018 C289.293687,17.0554018 287.528382,17.016631 286.286736,15.9291344 C285.41371,15.1716398 284.734564,13.9483329 284.734564,11.5596497 L284.734564,9.13208313 L284.734677,9.13208313 Z M298.469692,16.6281347 C298.198011,16.5117098 298.139915,16.4338302 298.139915,16.0649447 C298.139915,15.1715271 298.217377,14.142412 298.236742,13.870566 C298.236742,13.6181054 298.314317,13.4431863 298.450214,13.4431863 C298.605476,13.4431863 298.624841,13.5986073 298.624841,13.715145 C298.624841,13.9287221 298.683051,14.2782223 298.780103,14.5695663 C299.148724,15.792986 300.429102,16.2009804 301.496234,16.2009804 C302.970605,16.2009804 303.862997,15.2687921 303.862997,14.1036413 C303.862997,13.3850302 303.688257,12.6665318 302.175154,11.7731142 L301.18571,11.1904261 C299.16809,10.0058899 298.508535,8.89878247 298.508535,7.4424003 C298.508535,5.42271537 300.448581,4.12152885 302.815343,4.12152885 C303.921093,4.12152885 304.794345,4.27694992 305.240428,4.39337483 C305.39569,4.43214557 305.473152,4.49041438 305.473152,4.60706471 C305.473152,4.82075459 305.415055,5.28679238 305.415055,6.5879789 C305.415055,6.93747907 305.337368,7.11217279 305.201584,7.11217279 C305.085166,7.11217279 305.027069,7.01513325 305.027069,6.82094144 C305.027069,6.66552037 304.949382,6.16059914 304.580761,5.73333209 C304.328558,5.42271537 303.785535,4.95667758 302.679447,4.95667758 C301.45739,4.95667758 300.351415,5.5974091 300.351415,6.72378919 C300.351415,7.46189837 300.622983,8.04436108 302.155564,8.89889518 L302.854074,9.28716608 C305.104419,10.5301965 305.802929,11.7924996 305.802929,13.2878779 C305.802929,14.5111848 305.337143,15.5018673 304.095609,16.3756741 C303.280792,16.9583622 302.155564,17.0551764 301.243807,17.0551764 C300.254587,17.0552891 299.206821,16.9584749 298.469692,16.6281347 L298.469692,16.6281347 Z M308.673984,9.13208313 C308.673984,6.62686234 308.673984,6.16071185 308.654731,5.63629254 C308.615888,5.07321521 308.44126,4.8789107 308.072639,4.76237307 C307.878646,4.70399155 307.665174,4.6848316 307.451816,4.6848316 C307.277301,4.6848316 307.180135,4.64594815 307.180135,4.49052709 C307.180135,4.39348754 307.315919,4.3546041 307.5876,4.3546041 C308.227901,4.3546041 309.391748,4.39348754 309.876788,4.39348754 C310.30373,4.39348754 311.409481,4.3546041 312.069148,4.3546041 C312.282507,4.3546041 312.418403,4.39348754 312.418403,4.49052709 C312.418403,4.64594815 312.321463,4.6848316 312.146723,4.6848316 C311.972207,4.6848316 311.836423,4.70410426 311.64243,4.74310041 C311.176756,4.82075459 311.040972,5.05382984 311.002129,5.63640525 C310.963397,6.16071185 310.963397,6.62697505 310.963397,9.13219584 L310.963397,12.0451856 C310.963397,13.6376035 310.963397,14.9582881 311.04086,15.6575138 C311.099069,16.1040535 311.2156,16.3565141 311.719892,16.4341683 C311.952617,16.4731645 312.340716,16.4925498 312.592918,16.4925498 C312.786911,16.4925498 312.864486,16.5895894 312.864486,16.667469 C312.864486,16.7838939 312.728702,16.8421627 312.534596,16.8421627 C311.409481,16.8421627 310.245409,16.7838939 309.779735,16.7838939 C309.391748,16.7838939 308.227789,16.8421627 307.548756,16.8421627 C307.335285,16.8421627 307.218979,16.7838939 307.218979,16.667469 C307.218979,16.5897021 307.277188,16.4925498 307.490547,16.4925498 C307.742749,16.4925498 307.936742,16.4731645 308.091892,16.4341683 C308.441147,16.3566269 308.5382,16.1235516 308.596297,15.6381284 C308.673759,14.9584008 308.673759,13.6377162 308.673759,12.0452983 L308.673759,9.13208313 L308.673984,9.13208313 Z M316.822039,14.5890644 C316.86077,15.8707529 317.074241,16.2591365 317.404018,16.3757868 C317.695065,16.4728264 318.024842,16.4922117 318.29641,16.4922117 C318.490403,16.4922117 318.587456,16.5699786 318.587456,16.6671309 C318.587456,16.8030539 318.432194,16.8418246 318.19947,16.8418246 C317.093719,16.8418246 316.298043,16.7835558 315.987744,16.7835558 C315.832594,16.7835558 315.017778,16.8418246 314.144752,16.8418246 C313.911915,16.8418246 313.756765,16.8225519 313.756765,16.6671309 C313.756765,16.5700913 313.873184,16.4922117 314.028333,16.4922117 C314.26117,16.4922117 314.571469,16.4728264 314.804531,16.4146703 C315.250614,16.2981326 315.308824,15.8513675 315.328189,14.414258 L315.483451,4.62645008 C315.483451,4.29633528 315.599757,4.06326004 315.774498,4.06326004 C315.987856,4.06326004 316.220693,4.31572065 316.511627,4.60706471 C316.725098,4.82075459 319.285967,7.4424003 321.769035,9.86996691 C322.93322,11.0157324 325.203042,13.3462594 325.455245,13.579222 L325.53282,13.579222 L325.357967,6.23825332 C325.338826,5.22841086 325.183564,4.9370668 324.776325,4.78175844 C324.524122,4.68471889 324.116432,4.68471889 323.883708,4.68471889 C323.670349,4.68471889 323.612028,4.60706471 323.612028,4.50991246 C323.612028,4.37398946 323.786655,4.35449139 324.038858,4.35449139 C324.931362,4.35449139 325.843119,4.39337483 326.211852,4.39337483 C326.405846,4.39337483 327.045922,4.35449139 327.880217,4.35449139 C328.113054,4.35449139 328.268091,4.37387676 328.268091,4.50991246 C328.268091,4.60695201 328.17115,4.68471889 327.977157,4.68471889 C327.802417,4.68471889 327.666745,4.68471889 327.453274,4.7429877 C326.9876,4.8789107 326.851929,5.17025475 326.832451,6.10244304 L326.638457,16.5117098 C326.638457,16.8805953 326.502673,17.0360164 326.366777,17.0360164 C326.075843,17.0360164 325.843119,16.86121 325.668378,16.6862908 C324.601247,15.6959464 322.467208,13.6568761 320.682651,11.9284226 C318.82018,10.1417002 317.015919,8.14128792 316.685917,7.85005657 L316.62782,7.85005657 L316.822039,14.5890644 L316.822039,14.5890644 Z M331.255339,9.13208313 C331.255339,6.62686234 331.255339,6.16071185 331.235748,5.63629254 C331.197017,5.07321521 331.041868,4.89840877 330.498506,4.7429877 C330.362835,4.70399155 330.071901,4.68471889 329.819699,4.68471889 C329.644959,4.68471889 329.528653,4.62633737 329.528653,4.50991246 C329.528653,4.39337483 329.664437,4.35449139 329.916639,4.35449139 C330.809031,4.35449139 331.895528,4.39337483 332.380455,4.39337483 C332.923591,4.39337483 336.706628,4.4126475 337.036518,4.39337483 C337.34693,4.37387676 337.61861,4.31572065 337.754282,4.29633528 C337.851335,4.27694992 337.948275,4.2186811 338.02585,4.2186811 C338.122903,4.2186811 338.142268,4.29633528 338.142268,4.37398946 C338.142268,4.49052709 338.045328,4.6848316 338.006372,5.44221344 C337.987119,5.61701988 337.948162,6.33563099 337.909544,6.52971009 C337.890066,6.60725156 337.851335,6.80155607 337.715551,6.80155607 C337.599132,6.80155607 337.579541,6.72390189 337.579541,6.5879789 C337.579541,6.47144128 337.560289,6.18009722 337.463348,5.98579271 C337.327339,5.69456135 337.191668,5.46159881 336.338007,5.38383193 C336.047074,5.34483578 334.010088,5.30617775 333.660833,5.30617775 C333.583371,5.30617775 333.544414,5.36444656 333.544414,5.46159881 L333.544414,9.5397394 C333.544414,9.63689166 333.563892,9.71465854 333.660833,9.71465854 C334.048819,9.71465854 336.260545,9.71465854 336.648531,9.67588781 C337.055996,9.63689166 337.308086,9.59812092 337.463348,9.42342719 C337.599132,9.30677686 337.657341,9.20973731 337.735029,9.20973731 C337.812491,9.20973731 337.870813,9.28739149 337.870813,9.38465645 C337.870813,9.481696 337.831744,9.75354199 337.735029,10.5886907 C337.69596,10.9189182 337.657341,11.5791478 337.657341,11.6955727 C337.657341,11.8314957 337.637863,12.064571 337.482826,12.064571 C337.366408,12.064571 337.327339,12.0061895 337.327339,11.928648 C337.308086,11.7537288 337.308086,11.5402644 337.269242,11.3264618 C337.172302,10.996347 336.958718,10.7438864 336.318642,10.6857303 C336.00823,10.6467341 334.068185,10.6079634 333.64158,10.6079634 C333.563892,10.6079634 333.544414,10.6857303 333.544414,10.7828825 L333.544414,12.1034544 C333.544414,12.6666445 333.525161,14.0648705 333.544414,14.5502937 C333.583371,15.6766738 334.106916,15.9291344 335.853193,15.9291344 C336.299389,15.9291344 337.017152,15.909749 337.463461,15.7154445 C337.890178,15.5212527 338.084172,15.1717525 338.200477,14.4921376 C338.239546,14.3172184 338.278165,14.239677 338.394696,14.239677 C338.53048,14.239677 338.549958,14.4533668 338.549958,14.6279479 C338.549958,14.9969461 338.414061,16.1234389 338.317009,16.4535537 C338.20059,16.880708 338.045553,16.880708 337.405252,16.880708 C336.124874,16.880708 335.096586,16.8613227 334.262516,16.8225519 C333.428221,16.8030539 332.787919,16.7835558 332.283627,16.7835558 C332.089409,16.7835558 331.7209,16.8030539 331.313661,16.8030539 C330.906196,16.8225519 330.479366,16.8418246 330.130111,16.8418246 C329.916752,16.8418246 329.800333,16.7835558 329.800333,16.6671309 C329.800333,16.589364 329.858543,16.4922117 330.072014,16.4922117 C330.324104,16.4922117 330.518097,16.4728264 330.673359,16.4338302 C331.022615,16.3562887 331.119442,16.045672 331.177652,15.5599107 C331.255339,14.8609104 331.255339,13.5597239 331.255339,12.0448475 L331.255339,9.13208313 L331.255339,9.13208313 Z M340.683208,16.6281347 C340.41164,16.5117098 340.353318,16.4338302 340.353318,16.0649447 C340.353318,15.1715271 340.430893,14.142412 340.450371,13.870566 C340.450371,13.6181054 340.527834,13.4431863 340.66373,13.4431863 C340.818992,13.4431863 340.838358,13.5986073 340.838358,13.715145 C340.838358,13.9287221 340.896792,14.2782223 340.993733,14.5695663 C341.362128,15.792986 342.642731,16.2009804 343.709638,16.2009804 C345.184122,16.2009804 346.076401,15.2687921 346.076401,14.1036413 C346.076401,13.3850302 345.901886,12.6665318 344.388671,11.7731142 L343.399339,11.1904261 C341.381719,10.0058899 340.721939,8.89878247 340.721939,7.4424003 C340.721939,5.42271537 342.662097,4.12152885 345.028972,4.12152885 C346.134723,4.12152885 347.007748,4.27694992 347.453944,4.39337483 C347.609206,4.43214557 347.686781,4.49041438 347.686781,4.60706471 C347.686781,4.82075459 347.628572,5.28679238 347.628572,6.5879789 C347.628572,6.93747907 347.550885,7.11217279 347.415101,7.11217279 C347.298795,7.11217279 347.240585,7.01513325 347.240585,6.82094144 C347.240585,6.66552037 347.163011,6.16059914 346.794277,5.73333209 C346.542187,5.42271537 345.998939,4.95667758 344.893076,4.95667758 C343.670794,4.95667758 342.564932,5.5974091 342.564932,6.72378919 C342.564932,7.46189837 342.8365,8.04436108 344.369193,8.89889518 L345.067478,9.28716608 C347.318048,10.5301965 348.016333,11.7924996 348.016333,13.2878779 C348.016333,14.5111848 347.550659,15.5018673 346.309125,16.3756741 C345.494308,16.9583622 344.369193,17.0551764 343.45721,17.0551764 C342.467991,17.0552891 341.42045,16.9584749 340.683208,16.6281347 L340.683208,16.6281347 Z M350.344252,16.6281347 C350.072797,16.5117098 350.014475,16.4338302 350.014475,16.0649447 C350.014475,15.1715271 350.091937,14.142412 350.111415,13.870566 C350.111415,13.6181054 350.18899,13.4431863 350.324887,13.4431863 C350.480036,13.4431863 350.499402,13.5986073 350.499402,13.715145 C350.499402,13.9287221 350.557724,14.2782223 350.654664,14.5695663 C351.023172,15.792986 352.303663,16.2009804 353.370682,16.2009804 C354.845166,16.2009804 355.737557,15.2687921 355.737557,14.1036413 C355.737557,13.3850302 355.563042,12.6665318 354.049827,11.7731142 L353.060383,11.1904261 C351.04265,10.0058899 350.383096,8.89878247 350.383096,7.4424003 C350.383096,5.42271537 352.323141,4.12152885 354.689904,4.12152885 C355.795879,4.12152885 356.668792,4.27694992 357.115213,4.39337483 C357.27025,4.43214557 357.347713,4.49041438 357.347713,4.60706471 C357.347713,4.82075459 357.289503,5.28679238 357.289503,6.5879789 C357.289503,6.93747907 357.211929,7.11217279 357.076032,7.11217279 C356.959613,7.11217279 356.901517,7.01513325 356.901517,6.82094144 C356.901517,6.66552037 356.823829,6.16059914 356.455208,5.73333209 C356.203006,5.42271537 355.659983,4.95667758 354.554007,4.95667758 C353.331838,4.95667758 352.225975,5.5974091 352.225975,6.72378919 C352.225975,7.46189837 352.497431,8.04436108 354.030124,8.89889518 L354.728522,9.28716608 C356.978866,10.5301965 357.677377,11.7924996 357.677377,13.2878779 C357.677377,14.5111848 357.211591,15.5018673 355.970056,16.3756741 C355.155352,16.9583622 354.030124,17.0551764 353.118142,17.0551764 C352.129035,17.0552891 351.081382,16.9584749 350.344252,16.6281347 L350.344252,16.6281347 Z M273.754524,28.5366118 C273.754524,25.5846259 273.754524,25.0409339 273.71568,24.4195878 C273.676837,23.7591328 273.482843,23.4291307 273.056126,23.3319784 C272.842654,23.2735969 272.590452,23.2542115 272.357728,23.2542115 C272.163622,23.2542115 272.047316,23.2154408 272.047316,23.0602451 C272.047316,22.9435948 272.202465,22.9047114 272.512877,22.9047114 C273.250119,22.9047114 274.472288,22.9630929 275.034902,22.9630929 C275.519941,22.9630929 276.664535,22.9047114 277.401665,22.9047114 C277.653867,22.9047114 277.809129,22.9435948 277.809129,23.0602451 C277.809129,23.2154408 277.692711,23.2542115 277.498718,23.2542115 C277.304612,23.2542115 277.149462,23.2737096 276.916625,23.3128185 C276.392855,23.4096326 276.237593,23.7399728 276.198861,24.4197005 C276.160018,25.0411593 276.160018,25.5847386 276.160018,28.5367245 L276.160018,31.9545228 C276.160018,33.8382847 276.160018,35.3726592 276.23748,36.2075825 C276.295802,36.7318891 276.431586,37.0813893 277.013678,37.1591562 C277.285246,37.1979269 277.712076,37.2366977 278.00301,37.2366977 C278.216481,37.2366977 278.313422,37.2950792 278.313422,37.3921187 C278.313422,37.5280417 278.158272,37.5863105 277.944913,37.5863105 C276.664423,37.5863105 275.442254,37.5280417 274.918371,37.5280417 C274.472175,37.5280417 273.250006,37.5863105 272.473921,37.5863105 C272.221831,37.5863105 272.085934,37.5280417 272.085934,37.3921187 C272.085934,37.2950792 272.163509,37.2366977 272.396346,37.2366977 C272.687392,37.2366977 272.920229,37.1978142 273.094857,37.1591562 C273.482731,37.0813893 273.599149,36.7512745 273.657471,36.1880845 C273.754411,35.3726592 273.754411,33.838172 273.754411,31.9545228 L273.754411,28.5366118 L273.754524,28.5366118 Z M283.629039,35.3336631 C283.667883,36.6153515 283.881242,37.0037351 284.211132,37.1203854 C284.502065,37.217425 284.831955,37.2368104 285.103523,37.2368104 C285.297516,37.2368104 285.394569,37.3144645 285.394569,37.4117295 C285.394569,37.5476525 285.23942,37.5864232 285.006583,37.5864232 C283.900833,37.5864232 283.105381,37.5281544 282.794857,37.5281544 C282.639708,37.5281544 281.824891,37.5864232 280.951865,37.5864232 C280.719028,37.5864232 280.563878,37.5669252 280.563878,37.4117295 C280.563878,37.3145772 280.680297,37.2368104 280.835446,37.2368104 C281.068283,37.2368104 281.378695,37.217425 281.611532,37.1592689 C282.057728,37.0427313 282.115937,36.5961915 282.135303,35.1589693 L282.290565,25.3711614 C282.290565,25.0410466 282.406871,24.8080841 282.581498,24.8080841 C282.79497,24.8080841 283.027694,25.060432 283.31874,25.3516633 C283.532212,25.5653532 286.09308,28.1869989 288.576261,30.6145655 C289.740333,31.760331 292.010156,34.0907453 292.262358,34.3238206 L292.33982,34.3238206 L292.165305,26.982852 C292.145827,25.9730095 291.990678,25.6817781 291.583213,25.5262444 C291.33101,25.4294302 290.923658,25.4294302 290.690709,25.4294302 C290.47735,25.4294302 290.419141,25.3516633 290.419141,25.2545111 C290.419141,25.1185881 290.593881,25.09909 290.845971,25.09909 C291.738475,25.09909 292.650232,25.1380862 293.018853,25.1380862 C293.212959,25.1380862 293.853035,25.09909 294.687443,25.09909 C294.920167,25.09909 295.075317,25.1185881 295.075317,25.2545111 C295.075317,25.3515506 294.978264,25.4294302 294.78427,25.4294302 C294.60953,25.4294302 294.473859,25.4294302 294.260387,25.4875863 C293.794826,25.623622 293.659042,25.9149661 293.639564,26.8470417 L293.445458,37.2563084 C293.445458,37.625194 293.309787,37.780615 293.174003,37.780615 C292.882956,37.780615 292.650232,37.6059213 292.475492,37.4308895 C291.408585,36.4405451 289.274434,34.4014748 287.489651,32.6730212 C285.627294,30.8864115 283.823033,28.8859993 283.493143,28.5947679 L283.434933,28.5947679 L283.629039,35.3336631 L283.629039,35.3336631 Z M298.760513,37.3728461 C298.489057,37.2563084 298.430736,37.1784288 298.430736,36.8095433 C298.430736,35.9162385 298.50831,34.8871233 298.527676,34.6151647 C298.527676,34.3628167 298.605251,34.1878976 298.741147,34.1878976 C298.896297,34.1878976 298.915775,34.343206 298.915775,34.4597436 C298.915775,34.6734335 298.973984,35.0230463 299.070924,35.3142777 C299.439433,36.5376973 300.719923,36.9454663 301.787055,36.9454663 C303.261426,36.9454663 304.153818,36.0133907 304.153818,34.8481272 C304.153818,34.1297415 303.97919,33.4111304 302.466088,32.5178255 L301.476531,31.9352501 C299.458911,30.7503758 298.799356,29.6436065 298.799356,28.1869989 C298.799356,26.167314 300.739289,24.8661275 303.106164,24.8661275 C304.212027,24.8661275 305.085053,25.0214358 305.531249,25.1380862 C305.686511,25.1769696 305.764086,25.2351257 305.764086,25.3516633 C305.764086,25.5653532 305.705764,26.0312783 305.705764,27.3325775 C305.705764,27.6821904 305.628302,27.8567714 305.492292,27.8567714 C305.375987,27.8567714 305.317665,27.7597319 305.317665,27.5655401 C305.317665,27.4102317 305.240203,26.9054232 304.871469,26.4780434 C304.619267,26.167314 304.07613,25.7012762 302.970268,25.7012762 C301.748099,25.7012762 300.642236,26.3421204 300.642236,27.4685005 C300.642236,28.206497 300.913804,28.7891851 302.446272,29.6436065 L303.144783,30.0319901 C305.39524,31.2747951 306.093525,32.5372109 306.093525,34.0324765 C306.093525,35.2560089 305.627964,36.246466 304.38643,37.1202727 C303.571613,37.7028481 302.446272,37.8000004 301.534515,37.8000004 C300.545633,37.8001131 299.497867,37.7029609 298.760513,37.3728461 L298.760513,37.3728461 Z M310.594551,29.8764564 C310.594551,27.3712356 310.594551,26.9054232 310.575298,26.3808912 C310.536455,25.8178138 310.361827,25.6235093 309.993206,25.5069717 C309.799213,25.4487029 309.585741,25.4294302 309.372383,25.4294302 C309.197642,25.4294302 309.100702,25.3904341 309.100702,25.2351257 C309.100702,25.1380862 309.236486,25.09909 309.508167,25.09909 C310.148468,25.09909 311.312315,25.1380862 311.797355,25.1380862 C312.224297,25.1380862 313.329935,25.09909 313.989715,25.09909 C314.203073,25.09909 314.33897,25.1380862 314.33897,25.2351257 C314.33897,25.3904341 314.24203,25.4294302 314.067289,25.4294302 C313.892774,25.4294302 313.75699,25.4488156 313.562997,25.4875863 C313.097323,25.5653532 312.961539,25.7984285 312.922696,26.3810039 C312.883964,26.9054232 312.883964,27.3713483 312.883964,29.8765691 L312.883964,32.7897842 C312.883964,34.3823148 312.883964,35.7028867 312.961427,36.4019997 C313.019636,36.8487649 313.136167,37.1011128 313.640459,37.1786543 C313.873184,37.2176504 314.261283,37.2370358 314.513485,37.2370358 C314.707478,37.2370358 314.784941,37.3340753 314.784941,37.4119549 C314.784941,37.5283798 314.649269,37.5866486 314.455163,37.5866486 C313.329935,37.5866486 312.165975,37.5283798 311.700302,37.5283798 C311.312315,37.5283798 310.148356,37.5866486 309.469323,37.5866486 C309.255852,37.5866486 309.139433,37.5283798 309.139433,37.4119549 C309.139433,37.334188 309.197642,37.2370358 309.411114,37.2370358 C309.663316,37.2370358 309.857197,37.2176504 310.012459,37.1786543 C310.361714,37.1011128 310.458767,36.8680375 310.516864,36.3826144 C310.594326,35.7029994 310.594326,34.3824275 310.594326,32.7898969 L310.594326,29.8764564 L310.594551,29.8764564 Z M321.594408,31.7019495 C321.594408,33.4499011 321.613773,34.7122042 321.633251,35.042319 C321.652504,35.4502007 321.691686,36.0327761 321.827245,36.2075825 C322.040716,36.518312 322.719636,36.8678121 324.058223,36.8678121 C325.610169,36.8678121 326.754876,36.5960788 327.783164,35.741432 C328.888914,34.8287418 329.238282,33.3527489 329.238282,31.6439061 C329.238282,29.546567 328.403987,28.1869989 327.64738,27.526882 C326.075843,26.1285433 324.213485,25.9538495 322.874898,25.9538495 C322.525418,25.9538495 321.962916,25.9926203 321.827132,26.0702745 C321.671982,26.1285433 321.613661,26.2063102 321.613661,26.4003893 C321.594295,26.963692 321.594295,28.3231473 321.594295,29.6241084 L321.594295,31.7019495 L321.594408,31.7019495 Z M319.30522,29.8764564 C319.30522,27.3712356 319.30522,26.9054232 319.285629,26.3808912 C319.246785,25.8178138 319.091636,25.6428947 318.5485,25.4874736 C318.412603,25.4487029 318.121557,25.4293175 317.869467,25.4293175 C317.694839,25.4293175 317.578533,25.370936 317.578533,25.2543984 C317.578533,25.1379735 317.714317,25.0989773 317.96652,25.0989773 C318.859024,25.0989773 319.945296,25.1379735 320.430448,25.1379735 C320.954106,25.1379735 322.1765,25.0989773 323.204788,25.0989773 C325.338714,25.0989773 328.209881,25.0989773 330.072352,26.9827393 C330.926012,27.8373861 331.68262,29.2161141 331.68262,31.1777556 C331.68262,33.255822 330.790228,34.8287418 329.820149,35.7803155 C329.044176,36.55697 327.239803,37.7222335 324.096954,37.7222335 C323.476131,37.7222335 322.739002,37.6639647 322.060082,37.6250813 C321.381049,37.5666997 320.760113,37.5280417 320.333395,37.5280417 C320.139289,37.5280417 319.770668,37.5475398 319.363429,37.5475398 C318.956077,37.5668125 318.529134,37.5863105 318.179766,37.5863105 C317.96652,37.5863105 317.850102,37.5280417 317.850102,37.4116168 C317.850102,37.3338499 317.908311,37.2366977 318.121557,37.2366977 C318.373759,37.2366977 318.567865,37.2173123 318.723127,37.1783161 C319.072383,37.1007747 319.169323,36.7901579 319.227532,36.3045094 C319.305107,35.605509 319.305107,34.3043225 319.305107,32.7894461 L319.305107,29.8764564 L319.30522,29.8764564 Z M336.046961,29.8764564 C336.046961,27.3712356 336.046961,26.9054232 336.027595,26.3808912 C335.988752,25.8178138 335.833715,25.6428947 335.290354,25.4874736 C335.154682,25.4487029 334.863523,25.4293175 334.611321,25.4293175 C334.436918,25.4293175 334.320387,25.370936 334.320387,25.2543984 C334.320387,25.1379735 334.456284,25.0989773 334.708374,25.0989773 C335.600878,25.0989773 336.68715,25.1379735 337.172302,25.1379735 C337.715438,25.1379735 341.498475,25.1572461 341.828365,25.1379735 C342.138889,25.1184754 342.410345,25.0603193 342.546129,25.0409339 C342.643294,25.0213231 342.740122,24.963167 342.81781,24.963167 C342.91475,24.963167 342.934228,25.0409339 342.934228,25.1185881 C342.934228,25.2351257 342.837288,25.4294302 342.798331,26.1868121 C342.779078,26.3615058 342.74001,27.0801169 342.701391,27.274196 C342.682026,27.3518502 342.643294,27.5461547 342.507398,27.5461547 C342.391092,27.5461547 342.371501,27.4685005 342.371501,27.3324648 C342.371501,27.2160399 342.352023,26.9246959 342.255195,26.7303913 C342.119299,26.43916 341.983515,26.2061974 341.129967,26.1283179 C340.838921,26.0894344 338.801935,26.0507764 338.45268,26.0507764 C338.375218,26.0507764 338.336374,26.1089325 338.336374,26.2061974 L338.336374,30.2844507 C338.336374,30.3814903 338.35574,30.4591445 338.45268,30.4591445 C338.840666,30.4591445 341.052392,30.4591445 341.440491,30.4203737 C341.847731,30.3814903 342.099933,30.3427196 342.255195,30.1680258 C342.391092,30.0514882 342.449189,29.9543359 342.526989,29.9543359 C342.604451,29.9543359 342.66266,30.0319901 342.66266,30.1290297 C342.66266,30.2261819 342.623704,30.4979152 342.526989,31.3331766 C342.487807,31.6634041 342.449189,32.3236337 342.449189,32.4401714 C342.449189,32.5759817 342.429823,32.8091696 342.274786,32.8091696 C342.158255,32.8091696 342.119299,32.7509008 342.119299,32.6731339 C342.099933,32.4984402 342.099933,32.284863 342.061202,32.0711731 C341.964262,31.7409456 341.750678,31.488485 341.110601,31.4302162 C340.800302,31.3913328 338.860145,31.352562 338.43354,31.352562 C338.35574,31.352562 338.336374,31.4302162 338.336374,31.5273685 L338.336374,32.8479403 C338.336374,33.4111304 338.317009,34.8093565 338.336374,35.2948923 C338.37533,36.4211597 338.898876,36.6736203 340.645153,36.6736203 C341.091123,36.6736203 341.809112,36.6542349 342.255308,36.4599304 C342.682138,36.265964 342.876357,35.9162385 342.992437,35.2366235 C343.031394,35.0618171 343.070012,34.9842756 343.186656,34.9842756 C343.322327,34.9842756 343.341918,35.1978528 343.341918,35.3726592 C343.341918,35.7413193 343.206021,36.8678121 343.108856,37.1978142 C342.99255,37.6250813 342.837513,37.6250813 342.197324,37.6250813 C340.916833,37.6250813 339.888545,37.6058086 339.054476,37.5666997 C338.220181,37.5474271 337.579767,37.527929 337.075587,37.527929 C336.881368,37.527929 336.51286,37.5474271 336.105621,37.5474271 C335.698269,37.5666997 335.271438,37.5861978 334.921845,37.5861978 C334.708712,37.5861978 334.592406,37.527929 334.592406,37.4115041 C334.592406,37.3337372 334.650502,37.2365849 334.863749,37.2365849 C335.115951,37.2365849 335.310169,37.2171996 335.465206,37.1782034 C335.814462,37.100662 335.911402,36.7900452 335.969611,36.3043967 C336.047186,35.605509 336.047186,34.3043225 336.047186,32.7894461 L336.046961,29.8764564 L336.046961,29.8764564 Z M349.821045,31.1583702 C349.821045,31.3330639 349.859776,31.3913328 349.976194,31.4496016 C350.344703,31.5662519 350.849108,31.6050226 351.276163,31.6050226 C351.955083,31.6050226 352.187807,31.5467538 352.478741,31.3330639 C353.002737,30.9641784 353.584716,30.2455673 353.584716,28.886112 C353.584716,26.5556976 351.993814,25.9537368 350.984892,25.9537368 C350.558287,25.9537368 350.150822,25.9730095 349.976194,26.0120056 C349.859776,26.0508891 349.821045,26.1089325 349.821045,26.2449682 L349.821045,31.1583702 L349.821045,31.1583702 Z M347.648163,29.8764564 C347.648163,27.3712356 347.648163,26.9054232 347.628685,26.3808912 C347.589841,25.8178138 347.434691,25.6428947 346.89133,25.4874736 C346.755546,25.4487029 346.464725,25.4293175 346.212523,25.4293175 C346.037895,25.4293175 345.921589,25.370936 345.921589,25.2543984 C345.921589,25.1379735 346.057373,25.0989773 346.309463,25.0989773 C347.201854,25.0989773 348.288352,25.1379735 348.637494,25.1379735 C349.219474,25.1379735 350.771645,25.0989773 351.295303,25.0989773 C352.381801,25.0989773 353.623447,25.1962423 354.535204,25.7982031 C355.020244,26.1283179 355.73812,26.9634666 355.73812,28.0703486 C355.73812,29.2938809 355.039609,30.3813776 353.371245,31.7213348 C354.88446,33.5855987 356.087263,35.0812024 357.115551,36.1103176 C358.066152,37.0617785 358.667497,37.1395454 358.939178,37.1977015 C359.113805,37.2365849 359.210746,37.2365849 359.34653,37.2365849 C359.482314,37.2365849 359.560001,37.3336245 359.560001,37.4115041 C359.560001,37.5474271 359.443583,37.5861978 359.230111,37.5861978 L357.600591,37.5861978 C356.649877,37.5861978 356.184316,37.4891583 355.73812,37.256083 C355.000766,36.8871975 354.360802,36.1103176 353.410089,34.8286291 C352.730831,33.9352116 352.013292,32.8282169 351.799708,32.5757562 C351.702768,32.4787167 351.60549,32.4593313 351.489184,32.4593313 L349.956716,32.4205606 C349.879141,32.4205606 349.820932,32.4593313 349.820932,32.5564836 L349.820932,32.7894461 C349.820932,34.3235952 349.840185,35.6053963 349.917872,36.3045094 C349.976082,36.7901579 350.053656,37.1007747 350.577427,37.1783161 C350.829629,37.2173123 351.19825,37.2366977 351.411609,37.2366977 C351.547393,37.2366977 351.625081,37.3337372 351.625081,37.4116168 C351.625081,37.5280417 351.489184,37.5863105 351.275938,37.5863105 C350.286381,37.5863105 348.870106,37.5280417 348.618016,37.5280417 C348.288239,37.5280417 347.201742,37.5863105 346.522709,37.5863105 C346.30935,37.5863105 346.192932,37.5280417 346.192932,37.4116168 C346.192932,37.3338499 346.251141,37.2366977 346.464612,37.2366977 C346.716702,37.2366977 346.910808,37.2173123 347.065958,37.1783161 C347.415326,37.1007747 347.512041,36.7901579 347.57025,36.3045094 C347.647937,35.605509 347.647937,34.3043225 347.647937,32.7894461 L347.647937,29.8764564 L347.648163,29.8764564 Z" id="Shape"></path>
            </g>
        </g>
    </g>
</svg>