<?xml version="1.0" encoding="UTF-8"?>
<svg width="100px" height="19px" viewBox="0 0 100 19" version="1.1" xmlns="http://www.w3.org/2000/svg" xmlns:xlink="http://www.w3.org/1999/xlink">
    <!-- Generator: Sketch 61.2 (89653) - https://sketch.com -->
    <title>Combined Shape</title>
    <desc>Created with Sketch.</desc>
    <g id="Page-1" stroke="none" stroke-width="1" fill="none" fill-rule="evenodd" opacity="0.800000012">
        <g id="00" transform="translate(-618.000000, -3693.000000)" fill="#6D86A4">
            <g id="Group-17" transform="translate(204.000000, 3683.000000)">
                <path d="M439.750172,15.1783291 C442.655184,15.1783291 445.385447,16.2712441 445.385447,20.0891711 L445.385447,27.7737295 L441.528109,27.7737295 L441.528109,26.5520818 C440.777886,27.4674587 439.321998,28.0800004 437.770132,28.0800004 C435.916804,28.0800004 433.611333,26.7818607 433.611333,24.0323954 C433.611333,21.0566879 435.916804,20.0612824 437.770132,20.0612824 C439.37332,20.0612824 440.801856,20.5972311 441.528109,21.512608 L441.528109,20.2909603 C441.528109,19.2224985 440.627106,18.4846596 439.071858,18.4846596 C437.869492,18.4846596 436.667027,18.9684685 435.690732,19.8072524 L434.262196,17.0855748 C435.817444,15.7351943 437.896843,15.1783291 439.750172,15.1783291 Z M476.066929,15.1783291 C478.971942,15.1783291 481.702205,16.2712441 481.702205,20.0891711 L481.702205,27.7737295 L477.844867,27.7737295 L477.844867,26.5520818 C477.094644,27.4674587 475.638756,28.0800004 474.08689,28.0800004 C472.233562,28.0800004 469.928091,26.7818607 469.928091,24.0323954 C469.928091,21.0566879 472.233562,20.0612824 474.08689,20.0612824 C475.690077,20.0612824 477.118614,20.5972311 477.844867,21.512608 L477.844867,20.2909603 C477.844867,19.2224985 476.943864,18.4846596 475.388616,18.4846596 C474.18625,18.4846596 472.983785,18.9684685 472.00749,19.8072524 L470.578954,17.0855748 C472.134202,15.7351943 474.213601,15.1783291 476.066929,15.1783291 Z M486.885277,10.8001012 L486.885277,16.9324899 C487.837602,15.7108422 489.139328,15.1783291 490.468504,15.1783291 C493.500229,15.1783291 495.802318,17.5937358 495.802318,21.6169887 C495.802318,25.7898908 493.448908,28.0800004 490.468504,28.0800004 C489.115358,28.0800004 487.889023,27.5196996 486.885277,26.3502927 L486.885277,27.7737295 L483.02794,27.7737295 L483.02794,10.8001012 L486.885277,10.8001012 Z M507.173223,15.1764799 C510.75645,15.1764799 513.360001,17.8493522 513.360001,22.0223554 L513.360001,22.9132792 L504.744422,22.9132792 C505.018433,24.0060931 506.022178,24.9249056 507.772765,24.9249056 C508.62573,24.9249056 510.030197,24.5420418 510.729099,23.8807959 L512.407677,26.4492876 C511.205211,27.5456381 509.201202,28.0781512 507.347973,28.0781512 C503.617347,28.0781512 500.760374,25.6105036 500.760374,21.6151395 C500.760374,18.0512424 503.391276,15.1764799 507.173223,15.1764799 Z M451.294773,15.1762374 C453.350203,15.1762374 455.05275,15.8375844 456.354476,16.8051011 L454.878,19.5789185 C454.151747,18.8654317 452.774631,18.2319735 451.322124,18.2319735 C450.417739,18.2319735 449.818297,18.5870496 449.818297,19.0707575 C449.818297,20.4177024 456.830688,19.0186177 456.830688,24.0580915 C456.830688,26.4003408 454.80261,28.0779087 451.346094,28.0779087 C449.167434,28.0779087 446.937254,27.3400699 445.659497,26.170663 L447.262685,23.3724934 C448.163689,24.1868242 450.092308,25.0256082 451.520844,25.0256082 C452.671889,25.0256082 453.148101,24.6949852 453.148101,24.1590365 C453.148101,22.6346546 446.11164,24.2112774 446.11164,19.2239434 C446.11164,17.0591311 447.964968,15.1762374 451.294773,15.1762374 Z M500.21086,10.8004852 L500.21086,27.7741135 L496.353522,27.7741135 L496.353522,10.8004852 L500.21086,10.8004852 Z M419.988058,10.8000001 L423.495994,20.1656631 L426.97648,10.8000001 L432.964538,10.8000001 L432.964538,27.7737295 L428.655058,27.7737295 L428.655058,16.5496261 L424.448319,27.7737295 L422.54367,27.7737295 L418.30948,16.5496261 L418.30948,27.7737295 L414,27.7737295 L414,10.8000001 L419.988058,10.8000001 Z M461.188525,10.800081 L461.188525,16.9847106 C461.914679,16.1180379 463.343216,15.1784099 465.371195,15.1784099 C468.125527,15.1784099 469.379313,16.7549317 469.379313,19.0206891 L469.379313,27.7737093 L465.521976,27.7737093 L465.521976,20.621664 C465.521976,19.1216342 464.744302,18.6378253 463.517966,18.6378253 C462.390891,18.6378253 461.640668,19.2747191 461.188525,19.8350199 L461.188525,27.7737093 L457.331188,27.7737093 L457.331188,10.800081 L461.188525,10.800081 Z M439.37332,22.6576628 C438.373055,22.6576628 437.444701,23.1170185 437.444701,24.0845352 C437.444701,25.052052 438.373055,25.5079721 439.37332,25.5079721 C440.226384,25.5079721 441.127288,25.2052379 441.528109,24.6170484 L441.528109,23.5242344 C441.127288,22.9394805 440.226384,22.6576628 439.37332,22.6576628 Z M475.690077,22.6576628 C474.689813,22.6576628 473.761458,23.1170185 473.761458,24.0845352 C473.761458,25.052052 474.689813,25.5079721 475.690077,25.5079721 C476.543141,25.5079721 477.444045,25.2052379 477.844867,24.6170484 L477.844867,23.5242344 C477.444045,22.9394805 476.543141,22.6576628 475.690077,22.6576628 Z M489.190748,18.6378455 C488.365135,18.6378455 487.36139,19.0972013 486.885277,19.7584471 L486.885277,23.5242344 C487.36139,24.1854803 488.365135,24.6170484 489.190748,24.6170484 C490.718645,24.6170484 491.86969,23.4719936 491.86969,21.6169887 C491.86969,19.7829003 490.718645,18.6378455 489.190748,18.6378455 Z M507.173223,18.3331611 C505.494645,18.3331611 504.843782,19.3493821 504.693002,20.2404069 L509.677414,20.2404069 C509.578054,19.3737342 508.951161,18.3331611 507.173223,18.3331611 Z" id="Combined-Shape"></path>
            </g>
        </g>
    </g>
</svg>