<?xml version="1.0" encoding="UTF-8"?>
<svg width="111px" height="19px" viewBox="0 0 111 19" version="1.1" xmlns="http://www.w3.org/2000/svg" xmlns:xlink="http://www.w3.org/1999/xlink">
    <!-- Generator: Sketch 61.2 (89653) - https://sketch.com -->
    <title>Combined Shape</title>
    <desc>Created with Sketch.</desc>
    <g id="Page-1" stroke="none" stroke-width="1" fill="none" fill-rule="evenodd" opacity="0.800000012">
        <g id="00" transform="translate(-772.000000, -3693.000000)" fill="#6D86A4">
            <g id="Group-17" transform="translate(204.000000, 3683.000000)">
                <path d="M625.134814,12.8496794 C626.227437,12.8496794 627.259768,13.039087 628.202517,13.4123262 C629.145095,13.7855654 629.97,14.3130141 630.654281,14.979687 C631.338562,15.6472311 631.882733,16.4569616 632.271377,17.3865747 C632.660193,18.3168848 632.857341,19.3526149 632.857341,20.4650141 C632.857341,21.5779361 632.660193,22.6133178 632.271377,23.5432794 C631.882733,24.4730667 631.338734,25.2829714 630.654281,25.950167 C629.970857,26.6166656 629.145951,27.1435916 628.202517,27.5177021 C627.259939,27.890767 626.227951,28.0800004 625.134814,28.0800004 C624.027289,28.0800004 622.991532,27.890767 622.056491,27.5173536 C621.120764,27.1441143 620.295859,26.6170141 619.605069,25.9505155 C618.913594,25.2833199 618.365484,24.4735894 617.976669,23.5432794 C617.588024,22.6131435 617.390876,21.5775876 617.390876,20.4650141 C617.390876,19.3529634 617.588024,18.317059 617.976669,17.3865747 C618.365484,16.4566131 618.913594,15.6467084 619.605069,14.9795127 C620.296887,14.3124914 621.121621,13.7853912 622.056662,13.4125005 C622.992046,13.039087 624.027632,12.8496794 625.134814,12.8496794 Z M616.408903,13.0908386 L616.408903,16.4937279 L612.404103,16.4937279 L612.404103,27.8172344 L608.585318,27.8172344 L608.585318,16.4937279 L604.559279,16.4937279 L604.559279,13.0908386 L616.408903,13.0908386 Z M641.229892,13.0908386 C642.362082,13.0908386 643.417194,13.2612532 644.365253,13.5977261 C645.314339,13.934896 646.145754,14.4252298 646.835687,15.0551364 C647.526648,15.6860884 648.074244,16.462886 648.462032,17.3640967 C648.850848,18.2660043 649.047482,19.3015602 649.047482,20.4430589 C649.047482,21.5842091 648.850848,22.6201134 648.462032,23.5221954 C648.074244,24.4232318 647.526991,25.2033401 646.835858,25.8417848 C646.14524,26.4795325 645.313997,26.9735256 644.365253,27.3101727 C643.418393,27.6466456 642.370817,27.8170601 641.251303,27.8170601 L641.251303,27.8170601 L635.152894,27.8170601 L635.152894,13.0908386 Z M659.493259,13.0908386 L659.507305,13.1288247 L664.962369,27.8172344 L660.639152,27.8172344 L659.928836,25.714758 L654.348733,25.714758 L653.638417,27.8172344 L649.3152,27.8172344 L649.34466,27.7377773 L654.762728,13.0908386 L659.493259,13.0908386 Z M667.688874,13.0908386 L667.705831,13.1199381 L670.777645,18.4210851 L673.823595,13.0908386 L678.160001,13.0908386 L672.687123,21.8837414 L672.687123,27.8170601 L668.868338,27.8170601 L668.868338,21.8837414 L663.373878,13.0908386 L667.688874,13.0908386 Z M584.69012,10.8000001 C593.67861,10.8000001 601.007697,18.0279816 601.366024,27.0822563 C601.375616,27.3127864 601.379898,27.5452333 601.379898,27.7787256 L601.379898,27.7787256 L597.053426,27.7787256 C597.053426,27.5175278 597.045376,27.259118 597.029446,27.002625 C596.634293,20.4275508 591.250312,15.2018532 584.69012,15.2018532 C578.154765,15.2018532 572.787398,20.387648 572.356275,26.9264786 C572.33692,27.2078891 572.327328,27.4920876 572.327328,27.7787256 L572.327328,27.7787256 L568,27.7787256 C568,27.4830267 568.007194,27.1901158 568.022096,26.8989474 C568.471888,17.9310997 575.76295,10.8000001 584.69012,10.8000001 Z M584.69012,16.4597495 C590.59789,16.4597495 595.429993,21.1428389 595.794829,27.0587328 C595.809217,27.2971041 595.816411,27.5365208 595.816411,27.7787256 L595.816411,27.7787256 L591.489767,27.7787256 C591.489767,27.525369 591.477264,27.2770656 591.450029,27.0308531 C591.083138,23.5674998 588.191344,20.8616026 584.69012,20.8616026 C581.207395,20.8616026 578.327591,23.5397944 577.936206,26.9777075 C577.90606,27.240822 577.890816,27.5075957 577.890816,27.7787256 L577.890816,27.7787256 L573.563488,27.7787256 C573.563488,27.5278084 573.571195,27.2791565 573.587467,27.0324214 C573.965321,21.129596 578.790915,16.4597495 584.69012,16.4597495 Z M584.69012,22.1191504 C587.494731,22.1191504 589.813236,24.2289453 590.197084,26.9736998 C590.234253,27.2364658 590.253437,27.5051562 590.253437,27.7787256 L590.253437,27.7787256 L579.126975,27.7787256 C579.126975,27.4119335 579.161061,27.0540281 579.227005,26.7071004 C579.71842,24.0939031 581.977832,22.1191504 584.69012,22.1191504 Z M625.134814,16.2964792 C624.542855,16.2964792 624.004166,16.4053842 623.533134,16.6200577 C623.061759,16.8343827 622.655301,17.1316498 622.324894,17.5038436 C621.993972,17.8763858 621.733277,18.3193242 621.550346,18.82081 C621.367071,19.3229927 621.274235,19.8762301 621.274235,20.4650141 C621.274235,21.0539724 621.367071,21.607384 621.550346,22.109044 C621.73362,22.610704 621.994143,23.053991 622.324894,23.4260105 C622.654616,23.7975072 623.061074,24.0951228 623.533134,24.3097963 C624.004166,24.5242956 624.543197,24.6332006 625.134814,24.6332006 C625.711871,24.6332006 626.24388,24.5242956 626.715255,24.3097963 C627.1868,24.0947743 627.593258,23.7975072 627.923152,23.4260105 C628.253731,23.053991 628.514254,22.610704 628.6977,22.109044 C628.880974,21.6059901 628.973982,21.0531011 628.973982,20.4650141 C628.973982,19.8771014 628.880974,19.3242125 628.6977,18.82081 C628.514597,18.3193242 628.253902,17.8763858 627.923152,17.5038436 C627.592744,17.1319983 627.186115,16.8343827 626.715255,16.6200577 C626.24388,16.4053842 625.712213,16.2964792 625.134814,16.2964792 Z M641.260552,16.4939021 L638.971679,16.4939021 L638.971679,24.4145194 L641.239142,24.4145194 C641.859705,24.4145194 642.420832,24.3056144 642.906252,24.0904181 C643.391672,23.8757446 643.805495,23.5856216 644.135731,23.228239 C644.465968,22.8708563 644.722552,22.4465624 644.898803,21.9663349 C645.074712,21.4857589 645.164294,20.9734698 645.164294,20.4430589 C645.164294,19.8832001 645.082249,19.3590621 644.920043,18.885456 C644.758008,18.4134181 644.512215,17.9926092 644.189172,17.6355751 C643.865787,17.2785409 643.456589,16.9962591 642.972197,16.7956997 C642.48592,16.595663 641.910062,16.4939021 641.260552,16.4939021 L641.260552,16.4939021 Z M657.127994,17.0560262 L655.378495,22.3116945 L658.877492,22.3116945 L657.127994,17.0560262 Z" id="Combined-Shape"></path>
            </g>
        </g>
    </g>
</svg>