<?xml version="1.0" encoding="UTF-8"?>
<svg width="56px" height="24px" viewBox="0 0 56 24" version="1.1" xmlns="http://www.w3.org/2000/svg" xmlns:xlink="http://www.w3.org/1999/xlink">
    <!-- Generator: Sketch 61.2 (89653) - https://sketch.com -->
    <title>Combined Shape</title>
    <desc>Created with Sketch.</desc>
    <g id="Page-1" stroke="none" stroke-width="1" fill="none" fill-rule="evenodd" opacity="0.800000012">
        <g id="00" transform="translate(-937.000000, -3691.000000)" fill="#6D86A4">
            <g id="Group-17" transform="translate(204.000000, 3683.000000)">
                <path d="M747.318554,8.00602037 C747.469121,10.1673319 747.613695,12.3316537 747.758209,14.4959755 L739.757089,14.4959755 C739.723964,15.489336 739.751066,16.5880528 739.742032,17.5874337 C741.904172,17.6054948 744.099436,17.5904439 746.276632,17.5934541 L746.276632,24.0743786 C744.084379,24.080399 741.874058,24.0653481 739.693851,24.080399 C739.696862,26.6510654 739.708908,29.1736291 739.708908,31.7443256 C739.708908,31.7533561 739.705866,31.7563663 739.702885,31.7593765 L733.032775,31.7593765 C733.02073,31.7624168 733.02073,31.7533561 733.011696,31.7533561 C732.996639,23.8606556 732.996639,15.916782 733.008715,8.02107128 C733.008715,8.01204073 733.008715,8 733.014707,8 L747.303497,8 C747.312562,8 747.315543,8 747.318554,8.00602037 Z M774.544045,8.0361222 C775.474517,9.72784519 776.38096,11.4406395 777.296376,13.1444032 C778.247988,11.4556904 779.166446,9.73386556 780.108964,8.0361222 L787.423499,8.0361222 C787.429492,8.06622403 787.408443,8.09933605 787.393386,8.12341751 C785.258349,11.8741059 783.072119,15.6368349 780.940062,19.3935437 C783.310044,23.505454 785.725136,27.6143541 788.080001,31.7172339 L780.548619,31.7172339 C780.479358,31.7172339 780.352882,31.4131753 780.316776,31.3499916 C779.280876,29.4806377 778.244947,27.6023134 777.2151,25.7359998 C776.112921,27.7227207 775.040915,29.7425537 773.941777,31.7322848 C771.475493,31.7382751 769.030258,31.7202441 766.585083,31.7262645 C766.862096,31.208513 767.157237,30.7028022 767.452348,30.1940812 C769.50909,26.6420649 771.53572,23.0418858 773.595474,19.4868593 C771.406232,15.6639266 769.183866,11.8710957 766.982549,8.05719348 C766.976557,8.05719348 766.9615,8.03311202 766.976557,8.0361222 L774.544045,8.0361222 Z M761.23695,8.63213849 C762.013875,8.80371893 762.733584,9.06560488 763.374999,9.35458247 C765.362481,10.2516171 766.844058,11.5941588 768.036547,13.2708309 C768.822506,14.3695478 769.412728,15.6880081 769.795167,17.2262117 C769.987893,18.0088593 770.099312,18.8697718 770.099312,19.7758369 C770.099312,22.6023689 769.280259,24.6974866 768.141944,26.4012503 C767.949248,26.690258 767.753512,26.9671647 767.542718,27.232091 C766.925394,28.0147386 766.178583,28.7281219 765.344443,29.3211281 C764.784304,29.7184722 764.200135,30.0796942 763.552698,30.3837227 C762.263846,30.9887696 760.706955,31.4613684 758.912198,31.4613684 C756.105663,31.4613684 754.033834,30.6064763 752.35655,29.4325048 C750.679205,28.2555232 749.372285,26.6992584 748.483941,24.7366189 C747.887697,23.4211689 747.496223,21.9040365 747.451053,20.055784 C747.429974,19.1406883 747.544404,18.2376333 747.710028,17.4549856 C748.131615,15.4803054 748.959732,13.9330712 750.007707,12.59956 C751.055622,11.269059 752.383622,10.2275356 753.988664,9.44187778 C754.618033,9.13483909 755.322716,8.87295315 756.090607,8.6833116 C756.858497,8.49367006 757.707664,8.36423217 758.626122,8.36423217 L758.641178,8.36423217 C759.538586,8.32208961 760.490139,8.46657841 761.23695,8.63213849 Z M758.680356,13.1112912 C758.358143,13.1353726 758.090104,13.2377189 757.85525,13.3852179 C757.418606,13.6621547 757.087359,14.0865906 756.951849,14.6494948 C756.89644,14.8782688 756.887286,15.1571321 756.88584,15.4521783 L756.885599,24.375397 C756.885599,24.5620283 756.876565,24.7426393 756.900656,24.902179 C756.963924,25.3597269 757.168665,25.7269692 757.436674,26.0008959 C757.782977,26.3530874 758.319025,26.6480853 759.011633,26.5728307 C759.905939,26.4765049 760.562441,25.8834988 760.761159,25.0707493 C760.833431,24.7817717 760.812352,24.4115493 760.812352,24.0292259 L760.812352,15.3297962 C760.812352,14.9565335 760.770193,14.6675559 760.661785,14.3966394 C760.562411,14.1498044 760.408833,13.9240407 760.228152,13.7404195 C759.875826,13.3822077 759.345831,13.0601181 758.680356,13.1112912 Z" id="Combined-Shape"></path>
            </g>
        </g>
    </g>
</svg>